<?xml version="1.0" encoding="UTF-8" standalone="no"?>
<!-- Generator: Adobe Illustrator 13.0.0, SVG Export Plug-In . SVG Version: 6.00 Build 14948)  -->
<svg
   xmlns:dc="http://purl.org/dc/elements/1.1/"
   xmlns:cc="http://creativecommons.org/ns#"
   xmlns:rdf="http://www.w3.org/1999/02/22-rdf-syntax-ns#"
   xmlns:svg="http://www.w3.org/2000/svg"
   xmlns="http://www.w3.org/2000/svg"
   xmlns:sodipodi="http://sodipodi.sourceforge.net/DTD/sodipodi-0.dtd"
   xmlns:inkscape="http://www.inkscape.org/namespaces/inkscape"
   version="1.1"
   id="Layer_1"
   x="0px"
   y="0px"
   width="225.938px"
   height="407.407px"
   viewBox="0 0 225.938 407.407"
   enable-background="new 0 0 225.938 407.407"
   xml:space="preserve"
   sodipodi:version="0.32"
   inkscape:version="0.46"
   sodipodi:docname="duke-brice-de-nice.svg"
   inkscape:output_extension="org.inkscape.output.svg.inkscape"><metadata
   id="metadata2509"><rdf:RDF><cc:Work
       rdf:about=""><dc:format>image/svg+xml</dc:format><dc:type
         rdf:resource="http://purl.org/dc/dcmitype/StillImage" /></cc:Work></rdf:RDF></metadata><defs
   id="defs2507"><inkscape:perspective
     sodipodi:type="inkscape:persp3d"
     inkscape:vp_x="0 : 203.70351 : 1"
     inkscape:vp_y="0 : 1000 : 0"
     inkscape:vp_z="225.938 : 203.70351 : 1"
     inkscape:persp3d-origin="112.969 : 135.80234 : 1"
     id="perspective2511" /></defs><sodipodi:namedview
   inkscape:window-height="992"
   inkscape:window-width="1328"
   inkscape:pageshadow="2"
   inkscape:pageopacity="0.0"
   guidetolerance="10.0"
   gridtolerance="10.0"
   objecttolerance="10.0"
   borderopacity="1.0"
   bordercolor="#666666"
   pagecolor="#ffffff"
   id="base"
   showgrid="false"
   showguides="true"
   inkscape:guide-bbox="true"
   inkscape:zoom="0.85739994"
   inkscape:cx="-72.26351"
   inkscape:cy="100.58313"
   inkscape:window-x="4"
   inkscape:window-y="25"
   inkscape:current-layer="Layer_1" />
<path
   fill-rule="evenodd"
   clip-rule="evenodd"
   d="M48.859,43.518c8.424,17.64,2.736,140.832-7.128,184.032  c-9.864,43.272-19.728,98.28-22.032,144.576c-1.008,19.728,2.016,27.504,14.904,27.504c22.752,0,51.624-47.952,87.84-46.872  c36.288,1.08,47.808,55.008,64.8,54.648c16.992-0.36,30.672-6.264,30.816-58.752C218.563,191.981,87.235,64.973,48.859,43.518  L48.859,43.518L48.859,43.518L48.859,43.518z"
   id="path2469" />
<path
   fill-rule="evenodd"
   clip-rule="evenodd"
   d="M162.763,168.726c7.992,13.464,28.368,3.096,29.232-12.096  c0.864-15.192-1.368-34.344-11.232-35.064c-9.864-0.72-16.92-10.584-26.784-11.304c-9.864-0.72-20.448,9.144-25.056-3.96  s12.384-18.648,25.056-20.736c-11.304-11.304-17.928-23.832-22.896-36.864c-4.968-13.032-8.64-24.984,5.256-30.096  c13.896-5.112,12.744,21.168,28.656,33.192c-4.68-17.712-6.408-25.056-6.048-35.352s-0.36-18.144,14.256-16.128  c14.616,2.016,8.28,32.4,19.656,44.784c3.456-11.736,5.544-26.64,13.896-32.76s27.36-6.264,15.264,18.864  c-12.096,25.128,3.528,38.736-0.144,58.536c-3.672,19.8-15.048,16.2-19.944,28.944c-4.896,12.744,2.88,41.76-6.336,54.792  c-9.216,13.032-10.872,33.048-4.896,49.032C172.339,205.374,162.763,168.726,162.763,168.726L162.763,168.726L162.763,168.726  L162.763,168.726z"
   id="path2471" />
<path
   fill-rule="evenodd"
   clip-rule="evenodd"
   d="M48.355,185.646c-7.416,50.832-33.192,56.88-34.488,77.976  c-1.296,21.096,6.84,23.112,6.336,42.624c-0.504,19.512-17.856,27.432-19.944,38.016s8.928,13.968,15.336,13.968  c6.408,0,12.816-28.08,15.408-45.936s-8.496-28.368-8.496-40.608c0-12.24,16.056-34.632,13.104-14.976  C48.931,235.686,55.268,208.901,48.355,185.646L48.355,185.646L48.355,185.646L48.355,185.646z"
   id="path2473" />
<path
   style="fill:#000000"
   d="M 204.15625 306.375 C 203.09833 306.13712 202.06589 305.81539 201 305.625 C 198.70124 305.2144 196.36218 304.92974 194.03125 304.71875 C 189.36938 304.29677 184.65654 304.23565 179.90625 304.4375 C 175.15596 304.63935 170.37877 305.09462 165.59375 305.6875 C 160.80873 306.28038 156.01603 306.99892 151.25 307.75 C 146.48397 308.50108 141.75585 309.29227 137.0625 309.96875 C 132.36915 310.64523 127.72321 311.22469 123.15625 311.59375 C 118.58929 311.96281 114.07436 312.10868 109.6875 311.9375 C 107.49407 311.85191 105.35709 311.7018 103.21875 311.4375 C 101.08041 311.1732 98.951531 310.81586 96.875 310.34375 C 90.588596 308.15893 85.151955 306.3405 80.1875 304.875 C 75.223045 303.4095 70.747884 302.29399 66.34375 301.40625 C 61.939616 300.51851 57.60544 299.88904 53 299.4375 C 48.853257 299.03093 44.334165 298.78698 39.4375 298.625 C 31.442485 343.46594 26.011559 387.00164 35.46875 388.03125 C 53.324749 389.97524 78.727749 340.515 120.34375 340.875 C 162.03175 341.23499 178.473 396.32875 188.625 395.96875 C 198.777 395.60876 205.45125 399.564 206.53125 337.5 C 206.70539 327.49263 205.77936 317.01909 204.15625 306.375 z "
   id="path2520"
   transform="translate(0,-3.2780618e-6)" /><path
   style="fill:#fff238;fill-opacity:1;stroke:none;stroke-opacity:1"
   d="M 165.4375 193.5 C 164.89518 193.58237 164.35499 193.68746 163.71875 193.9375 C 162.90848 194.25594 162.00937 194.69263 161.0625 195.25 C 159.16876 196.36475 157.02199 197.93261 154.6875 199.78125 C 150.01852 203.47852 144.61796 208.36081 139.03125 213.21875 C 136.23789 215.64772 133.40522 218.06833 130.59375 220.34375 C 127.78228 222.61917 124.96995 224.73645 122.28125 226.5625 C 119.59255 228.38855 117.01881 229.91913 114.59375 231 C 113.38122 231.54043 112.21395 231.95133 111.09375 232.25 C 109.97355 232.54867 108.88527 232.73007 107.875 232.75 C 106.94459 232.80166 105.99747 232.76625 105 232.625 C 104.00253 232.48375 102.96112 232.2444 101.90625 231.9375 C 99.796517 231.32371 97.593877 230.39403 95.3125 229.28125 C 93.031123 228.16847 90.688258 226.86239 88.3125 225.46875 C 85.936742 224.07511 83.517877 222.61264 81.125 221.15625 C 78.732123 219.69986 76.363984 218.23852 74.03125 216.9375 C 71.698516 215.63648 69.414078 214.49003 67.21875 213.5625 C 65.023422 212.63497 62.91816 211.92966 60.9375 211.59375 C 59.94717 211.42579 58.984676 211.35416 58.0625 211.375 C 57.661418 211.38407 57.293129 211.48277 56.90625 211.53125 C 53.513743 227.63444 45.906367 262.34363 39.4375 298.625 C 44.334166 298.78698 48.853257 299.03093 53 299.4375 C 57.605441 299.88904 61.939616 300.51851 66.34375 301.40625 C 70.747885 302.29399 75.223045 303.4095 80.1875 304.875 C 85.151956 306.3405 90.588596 308.15893 96.875 310.34375 C 98.951533 310.81586 101.08041 311.1732 103.21875 311.4375 C 105.35709 311.7018 107.49407 311.85191 109.6875 311.9375 C 114.07436 312.10868 118.58929 311.96281 123.15625 311.59375 C 127.72321 311.22469 132.36915 310.64523 137.0625 309.96875 C 141.75585 309.29227 146.48397 308.50108 151.25 307.75 C 156.01603 306.99892 160.80873 306.28038 165.59375 305.6875 C 170.37877 305.09462 175.15596 304.63935 179.90625 304.4375 C 184.65654 304.23565 189.36938 304.29677 194.03125 304.71875 C 196.36218 304.92974 198.70124 305.2144 201 305.625 C 202.06589 305.81539 203.09833 306.13712 204.15625 306.375 C 198.13536 266.891 181.37708 225.01427 165.4375 193.5 z "
   id="path3345"
   transform="translate(0,-3.2780618e-6)" /><path
   style="fill:#d38d5f;fill-opacity:1"
   d="M 147.34375 161.25 C 116.95875 163.19401 84.27225 187.505 58.28125 205 C 58.046345 206.15043 57.23738 209.95948 56.90625 211.53125 C 57.293129 211.48277 57.661418 211.38407 58.0625 211.375 C 58.984676 211.35416 59.94717 211.42579 60.9375 211.59375 C 62.91816 211.92966 65.023422 212.63497 67.21875 213.5625 C 69.414078 214.49003 71.698516 215.63648 74.03125 216.9375 C 76.363984 218.23852 78.732123 219.69986 81.125 221.15625 C 83.517877 222.61264 85.936742 224.07511 88.3125 225.46875 C 90.688258 226.86239 93.031123 228.16847 95.3125 229.28125 C 97.593877 230.39403 99.796517 231.32371 101.90625 231.9375 C 102.96112 232.2444 104.00253 232.48375 105 232.625 C 105.99747 232.76625 106.94459 232.80166 107.875 232.75 C 108.88527 232.73007 109.97355 232.54867 111.09375 232.25 C 112.21395 231.95133 113.38122 231.54043 114.59375 231 C 117.01881 229.91913 119.59255 228.38855 122.28125 226.5625 C 124.96995 224.73645 127.78228 222.61917 130.59375 220.34375 C 133.40522 218.06833 136.23789 215.64772 139.03125 213.21875 C 144.61796 208.36081 150.01852 203.47852 154.6875 199.78125 C 157.02199 197.93261 159.16876 196.36475 161.0625 195.25 C 162.00937 194.69263 162.90848 194.25594 163.71875 193.9375 C 164.35499 193.68746 164.89518 193.58237 165.4375 193.5 C 159.02488 180.82156 152.73196 169.65284 147.34375 161.25 z "
   id="path2475"
   transform="translate(0,-3.2780618e-6)" />
<g
   id="g2477">
	<path
   d="M139.162,172.181c-1.95-18.251-19.12-25.421-35.661-23.168c-13.889,1.893-32.403,13.613-34.107,28.64   c-1.921,16.937,11.402,32.522,28.361,33.203c15.03,0.604,31.176-6.668,37.93-20.79   C138.415,184.362,139.482,178.488,139.162,172.181"
   id="path2479"
   fill="none" />
	<path
   d="M147.082,171.533c-1.662-17.195-14.407-27.988-30.895-30.627c-15.924-2.549-33.26,4.998-44.408,16.146   c-12.538,12.538-13.039,29.978-4.26,44.833c8.661,14.657,27.847,19.501,43.563,15.835   C132.588,212.705,148.48,193.896,147.082,171.533"
   id="path2481" />
	<radialGradient
   id="SVGID_1_"
   cx="86.6299"
   cy="167.0693"
   r="54.7155"
   gradientUnits="userSpaceOnUse">
		<stop
   offset="0"
   style="stop-color: rgb(255, 255, 255);"
   id="stop2484" />
		<stop
   offset="0.0604"
   style="stop-color: rgb(251, 200, 180);"
   id="stop2486" />
		<stop
   offset="0.0712"
   style="stop-color: rgb(251, 195, 176);"
   id="stop2488" />
		<stop
   offset="0.1829"
   style="stop-color: rgb(247, 151, 139);"
   id="stop2490" />
		<stop
   offset="0.2995"
   style="stop-color: rgb(244, 113, 107);"
   id="stop2492" />
		<stop
   offset="0.4199"
   style="stop-color: rgb(241, 82, 81);"
   id="stop2494" />
		<stop
   offset="0.5453"
   style="stop-color: rgb(239, 58, 61);"
   id="stop2496" />
		<stop
   offset="0.6778"
   style="stop-color: rgb(238, 41, 47);"
   id="stop2498" />
		<stop
   offset="0.822"
   style="stop-color: rgb(237, 31, 39);"
   id="stop2500" />
		<stop
   offset="1"
   style="stop-color: rgb(237, 28, 36);"
   id="stop2502" />
	</radialGradient>
	<path
   d="M139.162,177.941c-1.493,15.627-13.947,28.182-28.944,31.824   c-15.87,3.854-33.393-2.257-39.096-18.576c-2.912-8.332-2.37-16.879,2.637-24.198c4.223-6.171,11.033-11,17.779-14.066   c13.924-6.326,33.832-7.029,43.531,7.077C138.744,165.348,139.387,171.641,139.162,177.941"
   id="path2504"
   stroke="#000000"
   fill="url(#SVGID_1_)" />
</g>
<g
   id="g3298"
   transform="matrix(1.1659988,0,0,1.3954274,-18.80568,-90.322304)"><path
     sodipodi:nodetypes="ccccc"
     id="path3292"
     d="M 67.832442,266.58768 C 92.505033,256.48497 134.37719,236.23123 145.97377,241.22783 C 155.65509,246.03864 153.32744,261.36451 139.99462,266.17533 C 140.88805,261.15834 143.3255,259.44299 139.78844,256.07262 C 132.78201,249.33869 90.924338,260.5398 67.832442,266.58768 z"
     style="fill:#000000;fill-rule:evenodd;stroke:#000000;stroke-width:1px;stroke-linecap:butt;stroke-linejoin:miter;stroke-opacity:1" /><path
     sodipodi:nodetypes="csc"
     id="path3294"
     d="M 144.73671,234.21779 C 152.0725,236.00401 161.68489,235.45679 159.7284,239.36673 C 157.17238,244.4748 150.9537,237.31567 144.53053,234.21779"
     style="fill:#000000;fill-rule:evenodd;stroke:#000000;stroke-width:1px;stroke-linecap:butt;stroke-linejoin:miter;stroke-opacity:1" /></g><path
   style="fill:none;fill-rule:evenodd;stroke:#000000;stroke-width:1px;stroke-linecap:butt;stroke-linejoin:miter;stroke-opacity:1"
   d="M 55.837418,211.60177 C 69.347256,207.81124 93.43507,233.42199 108.32168,232.59548 C 124.48597,232.27654 155.84909,193.91264 166.34594,193.23228"
   id="path3342"
   sodipodi:nodetypes="ccc" /></svg>